<?xml version="1.0" encoding="UTF-8" standalone="no"?>
<!DOCTYPE svg PUBLIC "-//W3C//DTD SVG 1.1//EN" "http://www.w3.org/Graphics/SVG/1.1/DTD/svg11.dtd">
<!-- Created with Vectornator (http://vectornator.io/) -->
<svg height="100%" stroke-miterlimit="10" style="fill-rule:nonzero;clip-rule:evenodd;stroke-linecap:round;stroke-linejoin:round;" version="1.1" viewBox="0 0 750 500" width="100%" xml:space="preserve" xmlns="http://www.w3.org/2000/svg" xmlns:vectornator="http://vectornator.io" xmlns:xlink="http://www.w3.org/1999/xlink">
<defs/>
<g id="Untitled" vectornator:layerName="Untitled">
<g opacity="1">
<g opacity="1">
<path d="M260.036 322.002C260.036 318.494 259.982 315.901 259.786 312.502C261.026 315.802 262.361 319.137 263.509 322.208C262.466 322.144 260.281 322.161 260.036 322.002M291.242 200.034C290.096 200.156 289.153 200.619 288.786 201.752C287.616 200.6 288.109 198.326 287.742 196.784C286.747 197.216 286.517 198.68 286.036 199.752C284.598 198.469 285.494 194.738 283.536 194.502C283.544 193.946 283.218 193.234 282.973 192.79C282.785 192.796 282.048 192.95 281.824 193.04C281.156 198.606 287.562 202.478 286.036 207.502C283.906 214.512 278.185 219.014 274.036 224.752C272.604 222.406 271.413 217.927 269.48 216.308C268.441 215.438 266.407 214.592 264.488 213.94C265.137 212.582 265.742 211.333 265.788 209.627C265.833 207.976 265.286 206.785 265.286 205.252C265.286 203.739 265.903 202.62 265.787 201.003C265.669 199.364 264.806 198.752 264.536 197.002C263.941 193.148 259.859 182.653 254.036 186.252C250.023 182.46 246.963 183.578 242.036 186.315C239.797 187.559 238.031 188.604 236.536 190.752C235.25 192.601 233.639 196.136 231.036 195.002C230.8 196.769 232.426 196.836 233.699 196.989C232.411 198.106 230.93 198.93 229.96 200.219C227.551 199.339 225.731 196.856 223.848 194.94C221.262 192.31 218.602 189.841 215.786 187.502C215.815 187.181 215.802 186.851 215.748 186.54C215.33 186.5 214.959 186.397 214.536 186.502C211.318 183.211 208.554 178.066 206.285 173.946C205.023 171.655 203.756 169.338 202.543 167.008C201.782 165.547 199.976 163.484 199.586 161.946C199.197 160.415 199.535 158.659 199.049 156.989C198.49 155.072 198.192 153.317 198.092 151.252C197.989 149.16 197.156 147.537 196.286 150.502C195.678 152.575 197.267 153.869 195.474 155.69C191.518 159.709 190.604 151.377 187.824 151.54C187.877 152.736 188.746 153.675 189.286 154.752C187.166 153.972 186.279 151.819 184.974 150.064C182.911 147.285 182.298 149.202 183.005 151.908C183.983 155.651 188.389 159.028 191.786 161.002C194.251 162.435 195.22 163.54 196.348 166.196C198.201 170.558 200.911 174.492 202.979 178.752C205.225 183.379 206.057 187.794 209.483 191.797C216.702 200.231 221.294 206.239 228.441 214.544C228.276 215.019 228.052 215.482 227.724 215.935C226.327 217.861 223.895 218.142 224.286 221.002C224.822 218.849 227.451 220.43 228.798 220.947C230.414 221.568 231.105 222.574 233.054 221.596C233.067 222.851 232.543 223.927 231.599 224.771C233.534 224.697 234.928 225.351 236.522 225.839C236.905 227.025 237.198 228.124 237.244 228.602C237.354 229.764 237.216 230.947 237.429 232.094C237.761 233.887 238.907 235.407 239.618 237.086C240.63 239.478 240.443 242.407 240.539 245.002C240.246 245.389 240.179 245.935 240.369 246.38C241.19 246.776 241.633 247.664 242.017 248.49C242.514 249.557 243.021 250.685 242.929 251.857C242.781 253.737 241.114 255.396 241.473 257.247C241.743 257.252 241.872 257.798 242.142 257.803C242.455 259.098 242.76 260.5 242.238 261.725C241.863 262.605 241.092 263.3 240.866 264.229C240.707 264.883 240.841 265.573 240.757 266.241C240.539 267.976 238.885 269.509 239.35 271.194C239.747 271.29 240.149 271.939 240.546 272.035C239.408 272.389 238.573 274.524 239.163 275.561C232.983 289.084 233.26 305.392 239.895 318.697C240.388 319.685 240.13 320.463 240.286 321.502C238.702 320.967 237.199 320.108 235.38 319.533C233.272 318.867 231.987 318.821 230.381 320.6C227.359 323.943 230.013 327.167 228.286 331.002C226.498 334.973 225.306 338.039 226.279 342.503C226.718 344.512 226.801 347.312 229.535 347.001C231.419 346.787 233.078 344.753 233.918 343.125C235.01 341.005 235.33 338.704 237.218 336.941C238.398 335.838 241.481 335.148 242.503 333.965C240.422 337.448 237.281 340.775 234.342 343.516C231.182 346.461 229.275 349.325 226.718 352.702C224.792 355.245 223.175 356.827 220.069 357.76C217.253 358.606 214.645 358.303 213.506 361.627C212.107 365.706 212.85 370.453 211.598 374.558C209.907 380.096 209.205 385.962 214.682 389.752C219.275 392.929 220.537 386.782 221.045 383.378C221.428 380.818 221.91 378.731 223.005 376.346C223.936 374.315 225.694 372.055 224.786 369.752C225.756 368.445 225.048 367.264 226.786 366.502C227.64 360.856 237.285 356.233 242.036 354.502C243.849 354.998 246.488 355.685 248.029 354.744C248.973 354.168 249.351 352.814 250.093 351.996C250.898 351.107 252.074 350.467 253.023 349.696C256.176 347.139 261.335 341.994 261.286 337.752C264.036 339.065 265.909 339.558 269.036 339.002C271.975 339.42 276.306 340.681 279.478 339.695C284.309 338.196 281.426 326.253 281.23 322.252C281.027 318.089 280.411 313.717 279.779 309.552C279.258 306.109 277.837 302.472 277.036 299.002C276.141 295.13 275.488 292.109 275.286 288.002C275.084 283.898 272.624 279.841 273.536 275.752C273.744 274.817 273.553 273.933 273.012 273.252C274.925 271.733 272.783 262.343 273.036 259.502C273.275 256.814 273.892 255.445 273.523 252.752C273.223 250.559 273.432 247.408 274.036 245.252C277.14 244.666 278.907 238.733 278.536 235.752C280.922 235.197 281.885 232.089 283.06 230.253C282.333 229.669 281.403 229.184 281.786 228.502C283.226 225.939 284.674 223.313 286.008 220.618C287.584 217.437 287.675 213.292 290.536 211.002C293.002 209.03 291.794 208.153 290.968 206.014C289.913 203.286 291.41 202.35 291.242 200.034" fill="#004d82" fill-rule="evenodd" opacity="1" stroke="none"/>
<path d="M476.119 148.399C475.409 147.629 471.44 143.427 472.452 147.329C471.51 146.411 470.182 146.73 469.143 146.013C469.088 147.104 469.395 148.363 469.373 149.325C469.342 150.704 468.68 151.345 469.436 152.673C470.304 154.195 471.577 154.475 471.796 156.395C472.341 161.178 468.65 165.149 466.051 168.711C460.026 176.962 455.344 185.896 450.415 194.812C449.51 196.449 448.667 198.062 447.744 199.663C447.511 200.068 447.273 200.567 447.019 201.087C446.719 199.896 446.325 198.899 446.448 197.5C446.802 193.473 445.997 190.836 443.119 187.829C443.786 188.053 444.572 188.881 444.528 187.761C442.791 186.937 443.251 185.119 442.452 183.578C441.246 181.251 439.974 181.71 437.952 181.663C436.636 180.441 436.051 180.015 434.452 179.5C432.815 178.972 431.862 177.683 430.035 177.494C426.758 177.156 424.907 179.712 421.952 179.663C418.406 179.604 417.5 182.299 415.869 184.913C415.032 186.253 414.4 187.059 413.035 187.83C411.873 188.486 410.674 188.848 410.452 190.329C411.471 189.911 412.511 190.638 413.285 190.329C410.248 190.807 411.185 195.824 408.814 197.025C408.815 197.046 408.816 197.066 408.817 197.087C407.946 194.323 406.929 191.605 406.119 188.821C405.206 185.684 404.493 182.61 403.447 179.501C402.565 176.877 401.005 174.835 399.806 172.406C398.372 169.501 397.078 166.5 395.785 163.496C394.261 159.952 391.974 156.496 390.785 152.829C391.519 151.071 393.864 149.992 395.279 148.912C395.902 148.437 397.286 147.54 397.451 146.663C397.694 145.375 396.607 145.525 396.119 144.496C395.056 142.255 395.363 142.197 393.285 142.829C391.923 143.244 390.282 142.994 389.031 143.742C387.4 144.717 384.949 147.778 384.286 149.505C382.213 154.901 387.469 162.397 389.702 167.234C391.633 171.416 393.557 175.89 395.389 180.225C397.152 184.399 399.134 188.581 399.317 193.191C399.531 198.558 399.042 204.16 400.79 209.333C401.589 211.699 402.801 213.759 403.952 215.996C403.633 216.956 402.866 218.128 403.785 218.829C403.97 219.697 403.927 220.88 404.156 221.617C404.271 221.986 404.651 222.345 404.785 222.829C404.893 223.22 404.765 223.756 404.785 224.163C404.878 226.105 405.529 227.144 406.119 228.829C408.139 234.605 406.785 240.282 406.785 246.334C406.785 249.436 406.409 252.456 406.115 255.505C405.896 257.77 405.037 260.061 404.943 262.329C404.891 263.6 405.633 264.147 405.793 265.127C405.893 265.742 405.436 268.46 405.119 269.163C405.325 270.997 404.122 274.901 403.119 276.329C401.755 278.27 401.855 279.864 401.961 281.991C402.08 284.4 401.751 286.66 401.285 288.959C400.207 294.283 399.977 299.379 402.202 304.414C402.862 305.909 403.486 307.442 404.016 308.991C406.397 315.949 402.929 323.883 406.906 330.496C408.478 333.11 410.402 335.514 412.16 337.996C413.99 340.58 415.375 341.62 418.619 341.496C422.576 341.345 424.208 338.474 426.119 335.329C426.421 334.832 426.61 334.015 426.785 333.496C431.148 336.685 432.583 342.402 439.042 340.746C443.107 339.703 446.294 334.401 447.248 330.496C447.815 328.174 447.144 325.819 447.119 323.488C447.081 320.143 447.614 316.992 448.082 313.699C449.257 305.416 450.408 296.67 450.119 288.293C450.018 285.389 449.604 281.319 448.244 278.7C447.775 277.799 447.084 277.37 446.779 276.419C446.43 275.327 447.033 273.407 445.022 274.313C444.801 274.112 444.819 273.93 444.785 273.663C444.667 272.735 444.774 271.374 444.785 270.413C444.796 269.488 445.37 268.277 444.952 267.496C445.639 266.68 444.951 264.392 444.952 263.246C444.953 261.643 445.043 260.052 445.119 258.496C445.281 255.144 445.181 251.736 445.285 248.408C445.395 244.904 445.778 241.392 445.952 237.913C446.026 236.419 445.833 234.898 446.156 233.496C446.519 231.915 447.436 230.396 447.604 228.76C447.825 226.609 448.069 225.082 449.015 223.079C449.533 221.98 451.172 220.14 450.619 218.996C453.687 213.888 455.909 208.336 458.093 202.809C459.188 200.035 460.29 197.266 461.445 194.517C462.39 192.268 463.595 189.826 464.322 187.496C464.818 185.908 465.104 184.458 466.035 182.996C468.444 179.212 470.999 175.517 473.233 171.624C474.177 169.98 475.076 168.316 475.699 166.523C476.37 164.592 476.56 162.474 477.658 160.707C478.78 158.901 479.971 156.603 479.936 154.347C479.893 151.529 477.852 150.28 476.119 148.399" fill="#004d82" fill-rule="evenodd" opacity="1" stroke="none"/>
<path d="M388.084 135.775C387.374 135.005 383.405 130.803 384.417 134.705C383.475 133.787 382.147 134.106 381.108 133.389C381.053 134.48 381.36 135.739 381.338 136.701C381.307 138.08 380.645 138.721 381.401 140.049C382.269 141.571 383.542 141.851 383.761 143.771C384.306 148.554 380.615 152.525 378.016 156.087C371.991 164.338 367.309 173.272 362.38 182.188C361.475 183.825 360.632 185.438 359.709 187.039C359.476 187.444 359.238 187.943 358.984 188.463C358.684 187.272 358.29 186.275 358.413 184.876C358.767 180.849 357.962 178.212 355.084 175.205C355.751 175.429 356.537 176.257 356.493 175.137C354.756 174.313 355.216 172.495 354.417 170.954C353.211 168.627 351.939 169.086 349.917 169.039C348.601 167.817 348.016 167.391 346.417 166.876C344.78 166.348 343.827 165.059 342 164.87C338.723 164.532 336.872 167.088 333.917 167.039C330.371 166.98 329.465 169.675 327.834 172.289C326.997 173.629 326.365 174.435 325 175.206C323.838 175.862 322.639 176.224 322.417 177.705C323.436 177.287 324.476 178.014 325.25 177.705C322.213 178.183 323.15 183.2 320.779 184.401C320.78 184.422 320.781 184.442 320.782 184.463C319.911 181.699 318.894 178.981 318.084 176.197C317.171 173.06 316.458 169.986 315.412 166.877C314.53 164.253 312.97 162.211 311.771 159.782C310.337 156.877 309.043 153.876 307.75 150.872C306.226 147.328 303.939 143.872 302.75 140.205C303.484 138.447 305.829 137.368 307.244 136.288C307.867 135.813 309.251 134.916 309.416 134.039C309.659 132.751 308.572 132.901 308.084 131.872C307.021 129.631 307.328 129.573 305.25 130.205C303.888 130.62 302.247 130.37 300.996 131.118C299.365 132.093 296.914 135.154 296.251 136.881C294.178 142.277 299.434 149.773 301.667 154.61C303.598 158.792 305.522 163.266 307.354 167.601C309.117 171.775 311.099 175.957 311.282 180.567C311.496 185.934 311.007 191.536 312.755 196.709C313.554 199.075 314.766 201.135 315.917 203.372C315.598 204.332 314.831 205.504 315.75 206.205C315.935 207.073 315.892 208.256 316.121 208.993C316.236 209.362 316.616 209.721 316.75 210.205C316.858 210.596 316.73 211.132 316.75 211.539C316.843 213.481 317.494 214.52 318.084 216.205C320.104 221.981 318.75 227.658 318.75 233.71C318.75 236.812 318.374 239.832 318.08 242.881C317.861 245.146 317.002 247.437 316.908 249.705C316.856 250.976 317.598 251.523 317.758 252.503C317.858 253.118 317.401 255.836 317.084 256.539C317.29 258.373 316.087 262.277 315.084 263.705C313.72 265.646 313.82 267.24 313.926 269.367C314.045 271.776 313.716 274.036 313.25 276.335C312.172 281.659 311.942 286.755 314.167 291.79C314.827 293.285 315.451 294.818 315.981 296.367C318.362 303.325 314.894 311.259 318.871 317.872C320.443 320.486 322.367 322.89 324.125 325.372C325.955 327.956 327.34 328.996 330.584 328.872C334.541 328.721 336.173 325.85 338.084 322.705C338.386 322.208 338.575 321.391 338.75 320.872C343.113 324.061 344.548 329.778 351.007 328.122C355.072 327.079 358.259 321.777 359.213 317.872C359.78 315.55 359.109 313.195 359.084 310.864C359.046 307.519 359.579 304.368 360.047 301.075C361.222 292.792 362.373 284.046 362.084 275.669C361.983 272.765 361.569 268.695 360.209 266.076C359.74 265.175 359.049 264.746 358.744 263.795C358.395 262.703 358.998 260.783 356.987 261.689C356.766 261.488 356.784 261.306 356.75 261.039C356.632 260.111 356.739 258.75 356.75 257.789C356.761 256.864 357.335 255.653 356.917 254.872C357.604 254.056 356.916 251.768 356.917 250.622C356.918 249.019 357.008 247.428 357.084 245.872C357.246 242.52 357.146 239.112 357.25 235.784C357.36 232.28 357.743 228.768 357.917 225.289C357.991 223.795 357.798 222.274 358.121 220.872C358.484 219.291 359.401 217.772 359.569 216.136C359.79 213.985 360.034 212.458 360.98 210.455C361.498 209.356 363.137 207.516 362.584 206.372C365.652 201.264 367.874 195.712 370.058 190.185C371.153 187.411 372.255 184.642 373.41 181.893C374.355 179.644 375.56 177.202 376.287 174.872C376.783 173.284 377.069 171.834 378 170.372C380.409 166.588 382.964 162.893 385.198 159C386.142 157.356 387.041 155.692 387.664 153.899C388.335 151.968 388.525 149.85 389.623 148.083C390.745 146.277 391.936 143.979 391.901 141.723C391.858 138.905 389.817 137.656 388.084 135.775" fill="#004d82" fill-rule="evenodd" opacity="1" stroke="none"/>
<path d="M564.732 359.232C564.159 355.773 560.808 353.367 559.567 350.036C558.829 348.052 558.822 345.469 557.145 343.996C555.57 342.612 555.373 339.702 553.749 338.589C551.99 337.385 549.958 339.502 548.34 339.851C546.996 340.142 547.211 339.552 546.077 339.128C544.934 338.699 544.184 338.947 543.077 339.344C539.662 340.568 536.68 338.022 533.248 337.136C529.86 336.261 526.294 335.654 522.739 335.51C521.086 335.444 518.926 335.893 517.41 335.344C519.13 333.196 519.368 330.072 520.451 327.547C521.751 324.517 522.684 321.81 523.581 318.673C525.828 310.817 527.54 303.482 526.729 295.262C526.396 291.891 524.728 289.314 523.577 286.344C526.3 286.192 523.8 283.47 523.155 282.598C522.153 281.244 522.39 279.648 521.626 278.306C521.205 277.566 520.049 277.1 519.75 276.413C519.365 275.531 520.105 274.359 520.117 273.506C520.145 271.583 518.173 271.19 517.56 269.427C513.836 258.721 518.162 247.93 518.947 237.001C519.121 234.587 518.758 231.704 519.415 229.432C519.714 228.393 522.314 224.275 519.743 224.177C520.127 220.848 520.31 217.309 520.59 213.943C520.897 210.268 521.577 206.706 521.577 202.929L521.577 197.51C521.577 193.349 524.845 189.885 526.04 185.877C527.345 181.49 527.592 177.069 528.493 172.677C529.274 168.868 530.213 165.445 532.411 162.177C534.557 158.982 537.495 157.925 540.752 156.344C542.528 155.481 549.705 153.793 549.721 151.669C548.485 151.22 546.758 151.607 545.577 152.01C546.709 151.487 550.689 149.769 549.41 148.511C547.963 147.09 544.562 149.996 543.713 147.54C542.482 147.281 541.687 147.845 540.739 148.497C539.807 146.26 536.72 149.81 535.495 150.429C534.205 151.08 531.791 152.104 530.327 151.669C528.659 151.173 528.444 148.98 527.247 148.22C526.722 147.887 525.78 147.58 525.325 148.175C524.742 148.938 525.597 149.13 525.868 149.84C527.136 153.173 524.169 156.704 523.562 159.913C522.734 164.303 520.614 168.943 519.039 173.244C517.517 177.396 516.002 181.518 514.618 185.718C513.62 188.747 511.873 191.344 511.077 194.344C509.337 194.318 509.224 191.312 508.284 190.141C507.15 188.727 505.496 188.651 503.734 189.002C501.594 189.429 500.837 189.558 498.814 188.515C493.773 185.918 491.823 192.286 490.41 195.844C488.754 193.862 488.404 190.39 487.923 187.843C487.231 184.17 487.277 180.618 487.243 176.844C488.448 175.026 488.909 173.183 490.658 171.781C491.89 170.793 493.734 169.892 495.244 169.427C495.701 169.287 496.615 169.361 496.911 168.915C497.825 167.535 494.792 168.057 494.253 167.986C495.156 166.713 499.626 165.115 499.754 163.686C499.884 162.256 494.849 165.171 494.089 165.314C494.953 163.982 497.968 162.182 498.05 160.702C496.514 160.742 495.162 161.638 493.915 162.478C493.342 162.863 490.901 165.315 490.239 165.022C488.773 164.372 494.217 159.054 493.38 157.531C490.201 157.777 485.259 169.591 482.41 166.844C480.722 166.756 481.465 164.067 480.868 163.052C479.829 161.285 478.919 162.433 478.743 163.844C478.586 165.09 478.512 166.746 478.57 167.927C478.676 170.084 479.748 172.013 479.973 174.128C480.188 176.146 480.182 178.331 480.335 180.393C480.7 185.337 480.712 190.322 480.243 195.26C479.909 198.768 479.743 202.277 479.743 205.844C479.743 207.448 479.561 209.17 479.742 210.762C479.924 212.38 480.785 214.049 481.206 215.677C482.151 219.333 483.633 223.447 483.91 227.177C484.062 229.242 482.084 231.544 481.202 233.344C480.273 235.24 479.285 237.087 478.364 239.01C476.764 242.351 475.182 246.403 476.91 250.01C478.621 253.584 479.748 257.473 479.743 261.51C479.741 263.731 479.668 265.966 479.743 268.186C479.789 269.538 479.897 269.537 480.53 270.552C481.005 271.315 481.657 271.844 481.752 272.844C481.943 274.851 481.052 276.529 481.597 278.677C481.878 279.784 482.393 280.914 482.228 282.08C482.083 283.109 481.399 283.801 481.605 284.981C483.589 285.604 483.68 288.236 484.077 289.844C483.633 291.269 482.359 292.388 481.618 293.677C481.381 294.087 481.204 294.635 480.864 294.973C480.623 295.213 479.838 295.557 479.739 295.673C478.742 296.849 479.377 297.431 479.451 298.972C479.503 300.027 479.1 300.822 478.748 302.01C478.054 304.347 477.617 306.8 476.702 309.177C475.312 312.79 473.503 316.168 472.369 319.889C470.722 325.284 468.585 331.023 467.572 336.515C466.787 340.772 467.222 348.327 470.902 351.31C472.84 352.881 478.23 352.777 480.41 351.811C482.133 351.047 483.361 349.529 484.748 348.336C486.494 346.833 488.837 345.44 490.243 343.677C490.211 345.714 491.628 350.702 494.577 349.344C496.894 351.622 498.182 353.943 501.243 355.381C503.976 356.665 506.513 357.157 509.53 356.672C513.672 356.007 517.475 354.165 521.53 353.177C524.596 352.43 527.725 352.618 530.752 352.019C532.137 351.745 532.598 351.539 533.994 351.909C535.471 352.301 536.124 352.296 537.577 352.01C539.194 351.693 539.258 352.069 540.743 352.649C542.11 353.182 543.698 353.277 544.989 354.029C545.914 354.568 546.641 356.252 547.618 357.176C548.903 358.393 550.132 359.685 551.369 360.974C553.292 362.979 556.97 365.148 557.734 367.67C558.253 369.384 557.485 371.581 559.753 371.977C561.655 372.31 563.043 370.593 563.752 369.047C565.065 366.182 565.244 362.322 564.732 359.232" fill="#004d82" fill-rule="evenodd" opacity="1" stroke="none"/>
</g>
</g>
</g>
</svg>
