<?xml version="1.0" encoding="UTF-8" standalone="no"?>
<!DOCTYPE svg PUBLIC "-//W3C//DTD SVG 1.1//EN" "http://www.w3.org/Graphics/SVG/1.1/DTD/svg11.dtd">
<!-- Created with Vectornator (http://vectornator.io/) -->
<svg height="100%" stroke-miterlimit="10" style="fill-rule:nonzero;clip-rule:evenodd;stroke-linecap:round;stroke-linejoin:round;" version="1.1" viewBox="0 0 500 500" width="100%" xml:space="preserve" xmlns="http://www.w3.org/2000/svg" xmlns:vectornator="http://vectornator.io" xmlns:xlink="http://www.w3.org/1999/xlink">
<defs/>
<g id="Untitled" vectornator:layerName="Untitled">
<g opacity="1">
<g opacity="1">
<g opacity="1">
<path d="M268.669 275.751C268.933 275.045 269.063 274.275 269.469 273.701C270.2 272.666 271.084 272.727 271.617 273.847C272.415 275.524 273.194 277.228 273.767 278.99C274.23 280.413 274.431 281.932 274.641 283.424C274.803 284.575 274.255 285.387 273.274 285.76C272.42 286.085 271.609 285.74 270.94 284.744C270.747 284.455 270.525 284.15 270.451 283.823C269.845 281.164 269.271 278.497 268.669 275.751" fill="#000000" fill-rule="evenodd" opacity="1" stroke="none"/>
<path d="M181.564 275.965C181.789 273.77 182.417 271.663 183.448 269.694C183.975 268.688 184.819 268.311 185.745 268.485C186.592 268.645 187.207 269.411 187.264 270.563C187.301 271.309 187.244 272.075 187.111 272.812C186.844 274.293 186.502 275.762 186.181 277.234C185.851 278.744 185.162 279.403 183.917 279.421C182.74 279.438 181.927 278.659 181.654 277.208C181.58 276.813 181.593 276.4 181.564 275.965" fill="#000000" fill-rule="evenodd" opacity="1" stroke="none"/>
<path d="M81.2988 169.509C83.5538 169.803 85.4548 170.036 87.3508 170.31C87.7448 170.367 88.1528 170.516 88.4918 170.723C89.2758 171.202 89.8428 171.886 89.7688 172.855C89.6918 173.867 88.7968 174.081 88.0348 174.326C87.6038 174.465 87.1048 174.509 86.6538 174.45C84.2348 174.136 81.8198 173.778 79.4048 173.43C79.1758 173.397 78.9398 173.355 78.7298 173.262C78.0478 172.962 77.4408 172.44 77.5718 171.7C77.6678 171.165 78.1418 170.496 78.6248 170.273C79.5508 169.846 80.6038 169.694 81.2988 169.509" fill="#000000" fill-rule="evenodd" opacity="1" stroke="none"/>
<path d="M215.883 71.9604C215.805 72.7234 215.528 73.4584 214.71 73.8694C213.911 74.2724 213.175 74.0094 212.644 73.4304C212.108 72.8464 211.5 72.1634 211.337 71.4314C210.874 69.3434 210.59 67.2124 210.311 65.0884C210.247 64.6014 210.361 63.9974 210.617 63.5874C210.896 63.1414 211.419 62.6054 211.866 62.5754C212.304 62.5464 212.9 63.0164 213.212 63.4284C213.622 63.9724 213.898 64.6514 214.099 65.3134C214.692 67.2574 215.22 69.2214 215.766 71.1794C215.828 71.4024 215.837 71.6394 215.883 71.9604" fill="#000000" fill-rule="evenodd" opacity="1" stroke="none"/>
<path d="M321.684 66.9521C321.424 68.4601 321.243 70.2061 320.78 71.8731C320.568 72.6351 319.904 73.3711 319.258 73.8841C318.474 74.5051 317.66 74.2591 317.258 73.3371C316.892 72.4971 316.5 71.5461 316.554 70.6711C316.66 68.9471 317.056 67.2391 317.359 65.5291C317.408 65.2521 317.579 64.9931 317.714 64.7361C318.171 63.8661 318.913 63.4851 319.874 63.5701C320.655 63.6391 321.391 64.4001 321.577 65.3391C321.665 65.7901 321.643 66.2641 321.684 66.9521" fill="#000000" fill-rule="evenodd" opacity="1" stroke="none"/>
<path d="M348.494 269.356C348.724 269.004 348.988 268.332 349.474 267.928C350.084 267.421 350.708 267.916 351.166 268.355C352.84 269.961 354.557 271.533 356.104 273.254C357.286 274.57 356.888 276.124 355.335 276.564C354.751 276.729 353.885 276.61 353.393 276.267C351.262 274.78 349.604 272.857 348.685 270.377C348.605 270.163 348.597 269.922 348.494 269.356" fill="#000000" fill-rule="evenodd" opacity="1" stroke="none"/>
<path d="M115.236 97.1719C115.229 98.6859 114.327 99.4979 113.054 99.3219C112.664 99.2679 112.222 99.1409 111.929 98.8969C109.936 97.2419 108.227 95.3319 107.044 93.0079C106.76 92.4509 106.483 91.6669 107.153 91.2669C107.545 91.0329 108.242 91.1689 108.757 91.3059C111.321 91.9929 113.073 93.7829 114.61 95.8109C114.948 96.2569 115.093 96.8509 115.236 97.1719" fill="#000000" fill-rule="evenodd" opacity="1" stroke="none"/>
<path d="M396.693 95.4063C396.568 95.6623 396.42 96.2693 396.047 96.6633C395.084 97.6763 394.085 98.6773 392.977 99.5223C392.261 100.069 391.364 100.496 390.485 100.687C389.098 100.988 388.541 100.304 388.891 98.8723C389.056 98.2033 389.252 97.4423 389.691 96.9583C390.899 95.6293 392.126 94.2613 393.568 93.2163C394.982 92.1903 396.75 93.3573 396.693 95.4063" fill="#000000" fill-rule="evenodd" opacity="1" stroke="none"/>
<path d="M99.1411 257.716C98.7961 257.49 98.1681 257.292 97.9251 256.871C97.5171 256.169 97.7341 255.37 98.3201 254.796C99.1891 253.945 100.101 253.135 101.025 252.342C101.727 251.739 102.442 251.14 103.212 250.63C104.23 249.956 105.312 250.125 106.012 250.964C106.724 251.817 106.79 253.041 105.839 253.773C104.102 255.107 102.213 256.244 100.366 257.43C100.094 257.605 99.7011 257.592 99.1411 257.716" fill="#000000" fill-rule="evenodd" opacity="1" stroke="none"/>
<path d="M418.291 177.428C419.038 177.627 419.999 177.826 420.917 178.145C421.815 178.457 422.276 179.181 422.415 180.12C422.644 181.67 421.582 182.635 420.067 182.307C418.658 182.002 417.236 181.746 415.812 181.522C414.104 181.253 413.129 180.661 413.214 179.704C413.342 178.273 414.613 178.169 415.648 177.89C416.426 177.681 417.24 177.606 418.291 177.428" fill="#000000" fill-rule="evenodd" opacity="1" stroke="none"/>
<path d="M397.959 256.927C395.811 256.515 394.191 255.582 392.593 254.636C391.899 254.226 391.258 253.683 390.705 253.095C390.431 252.802 390.216 252.203 390.333 251.868C390.438 251.566 391.029 251.259 391.411 251.254C394.207 251.219 396.651 252.197 398.726 254.058C399.308 254.579 399.766 255.33 399.314 256.061C399.033 256.517 398.323 256.708 397.959 256.927" fill="#000000" fill-rule="evenodd" opacity="1" stroke="none"/>
<path d="M213.088 190.565C215.039 190.32 216.882 189.594 217.82 188.676C220.57 185.988 222.688 182.897 223.723 179.146C223.893 178.53 224.056 177.899 224.101 177.267C224.188 176.066 223.618 175.662 222.66 176.336C221.147 177.402 219.547 178.446 218.325 179.806C215.626 182.809 214.414 186.6 213.088 190.565M176.628 203.314C179.757 202.095 182.282 200.63 184.53 198.763C185.813 197.697 186.989 196.434 187.959 195.078C190.079 192.116 190.464 188.599 190.701 185.092C190.797 183.671 190.041 182.868 188.185 182.166C182.329 187.942 178.456 194.858 176.628 203.314M201.629 214.044C200.371 215.993 199.178 217.989 197.841 219.883C194.945 223.982 192.042 228.079 189.008 232.075C187.521 234.034 185.588 235.55 183.321 236.642C178.908 238.77 173.69 237.171 170.981 233.115C169.118 230.326 168.327 227.176 167.91 223.9C167.508 220.736 167.99 217.607 168.27 214.473C168.707 209.586 169.309 204.724 170.708 199.996C173.16 191.707 177.438 184.494 183.503 178.347C186.241 175.571 189.024 175.287 192.344 177.336C195.336 179.182 196.767 181.853 196.715 185.369C196.671 188.438 196.012 191.376 195.017 194.258C193.768 197.875 191.396 200.605 188.343 202.821C185.487 204.894 182.467 206.636 179.033 207.551C177.915 207.849 176.768 208.037 175.526 208.297C175.42 209.049 175.278 209.784 175.215 210.525C174.896 214.305 174.487 218.083 174.332 221.87C174.243 224.023 174.66 226.18 175.66 228.152C175.974 228.772 176.317 229.396 176.754 229.931C177.781 231.189 179.214 231.448 180.674 230.71C182.666 229.703 184.044 228.006 185.358 226.305C190.218 220.007 194.479 213.309 198.487 206.443C200.37 203.217 202.398 200.077 204.304 196.865C204.711 196.179 204.934 195.365 205.142 194.584C206.284 190.29 207.675 186.087 209.401 181.988C211.473 177.07 214.782 173.278 219.431 170.671C222.061 169.196 224.785 168.824 227.359 170.671C230.064 172.611 231.228 175.349 230.526 178.65C229.186 184.964 226.213 190.335 221.012 194.317C218.63 196.142 215.804 196.955 212.921 197.459C211.54 197.701 210.845 198.273 210.64 199.62C209.99 203.883 209.255 208.133 208.653 212.403C208.072 216.529 208.079 220.677 208.661 224.806C208.995 227.173 209.345 229.568 210.644 231.648C211.159 232.474 211.782 233.293 212.529 233.901C214.834 235.775 216.338 235.631 218.17 233.295C221.713 228.778 224.79 223.936 227.097 218.685C229.537 213.132 231.898 207.523 233.868 201.793C235.668 196.562 236.998 191.16 238.356 185.789C239.957 179.46 241.37 173.083 242.851 166.724C243.102 165.646 243.246 164.544 243.514 163.471C243.95 161.726 244.702 161.152 246.468 161.095C247.837 161.05 249.291 162.036 249.607 163.419C249.782 164.186 249.776 165.056 249.611 165.828C248.469 171.194 247.28 176.551 246.07 181.902C245.583 184.056 245.004 186.189 244.401 188.593C244.919 188.332 245.257 188.191 245.565 188.001C251.1 184.57 256.088 180.446 260.836 176.01C261.508 175.381 262.297 174.839 263.113 174.411C264.359 173.759 265.448 174.014 266.276 174.985C266.969 175.799 267.035 177.018 266.172 178.055C264.122 180.52 262.112 183.044 259.831 185.284C255.603 189.438 250.622 192.615 245.549 195.638C245.001 195.965 244.469 196.322 243.773 196.764C244.784 198.109 245.757 199.389 246.713 200.682C250.114 205.28 253.515 209.88 256.906 214.486C260.419 219.255 264.486 223.503 268.945 227.392C270.043 228.349 271.117 229.351 272.08 230.44C273.18 231.685 273.137 232.753 272.154 234.06C271.233 235.285 269.761 235.773 268.458 235.177C267.834 234.892 267.267 234.451 266.731 234.012C259.714 228.277 253.782 221.553 248.557 214.172C246.127 210.74 243.589 207.383 241.098 203.995C240.93 203.767 240.742 203.553 240.417 203.153C239.862 204.641 239.399 205.979 238.869 207.289C237.072 211.722 235.369 216.199 233.412 220.561C230.849 226.273 227.62 231.621 223.834 236.616C223.166 237.496 222.421 238.329 221.635 239.107C217.893 242.814 213.291 241.94 210.03 240.031C205.659 237.472 203.622 233.365 202.723 228.604C201.877 224.12 201.551 219.586 201.933 215.02C201.957 214.732 201.936 214.441 201.936 214.151C201.834 214.116 201.731 214.08 201.629 214.044" fill="#000000" fill-rule="evenodd" opacity="1" stroke="none"/>
<path d="M206.823 125.337C207.062 127.422 207.363 129.788 207.598 132.161C207.893 135.138 209.124 137.766 210.622 140.276C211.559 141.847 212.458 141.85 213.573 140.367C215.063 138.388 215.988 136.126 216.753 133.785C218.294 129.066 219.216 124.202 220.156 119.344C220.386 118.15 220.849 116.814 220.533 115.741C219.984 113.874 219.174 111.961 218 110.43C216.146 108.012 213.596 108.26 211.815 110.698C208.694 114.97 207.206 119.796 206.823 125.337M274.642 104.711C274.642 104.127 274.683 103.54 274.636 102.96C274.444 100.638 273.337 100.048 271.206 101.129C270.793 101.339 270.365 101.574 270.037 101.893C267.653 104.209 264.994 106.322 262.999 108.94C260.393 112.358 258.229 116.13 256.05 119.853C254.697 122.162 253.659 124.655 252.502 127.077C252.233 127.639 251.887 128.203 252.577 128.799C255.636 131.446 260.159 131.43 262.765 128.826C267.429 124.166 271.142 118.941 272.998 112.55C273.743 109.983 274.735 107.455 274.642 104.711M250.819 135.612C250.2 139.359 249.63 142.872 249.039 146.38C248.429 150.004 247.803 153.624 247.175 157.244C247.115 157.587 247.01 157.925 246.898 158.257C246.228 160.242 244.985 161.045 243.228 160.639C241.704 160.286 240.514 158.606 240.697 156.889C240.839 155.556 241.135 154.238 241.356 152.913C242.597 145.485 243.829 138.057 245.079 130.632C245.389 128.792 245.762 126.962 246.087 125.124C246.156 124.733 246.138 124.327 245.912 123.828C245.644 124.38 245.373 124.931 245.109 125.485C243.103 129.7 241.175 133.953 239.065 138.115C237.763 140.684 235.581 142.135 232.6 142.218C230.91 142.266 229.544 141.623 228.379 140.441C226.365 138.4 225.586 135.765 224.819 133.12C224.677 132.63 224.529 132.142 224.315 131.423C223.628 133.568 223.059 135.464 222.412 137.334C221.528 139.885 220.387 142.335 218.665 144.422C217.791 145.48 216.7 146.437 215.534 147.159C213.099 148.669 208.62 147.861 206.76 145.83C205.146 144.069 203.99 142.061 203.123 139.887C200.411 133.089 199.674 126.05 201.318 118.922C202.414 114.174 204.412 109.74 207.693 106.007C208.737 104.818 209.826 103.691 211.31 103.02C213.386 102.08 215.426 102.575 217.473 103.101C219.258 103.56 220.755 104.534 222.282 105.988C222.682 103.453 223.027 101.174 223.407 98.9009C223.58 97.8699 223.744 96.8239 224.057 95.8299C224.532 94.3169 226.155 93.5339 227.648 93.9839C229.41 94.5149 230.545 96.1219 230.31 98.0289C229.766 102.446 229.556 106.878 229.655 111.319C229.791 117.496 229.845 123.681 230.763 129.813C231.06 131.793 231.597 133.687 232.796 135.585C233.122 135.166 233.447 134.862 233.637 134.49C237.969 126.013 241.874 117.348 245.232 108.434C246.63 104.721 248.231 101.086 249.734 97.4119C250.064 96.6039 250.321 95.7629 250.692 94.9759C251.632 92.9819 253.725 92.4829 255.461 93.8369C256.782 94.8689 257.209 96.2019 256.896 97.8759C256.222 101.484 255.636 105.109 255.025 108.729C254.979 109.004 255.019 109.293 255.019 110.042C255.647 109.1 256.074 108.509 256.45 107.887C258.069 105.209 260.219 102.984 262.458 100.839C263.721 99.6289 265.01 98.4409 266.333 97.2959C268.635 95.3049 271.286 94.3519 274.374 94.4699C276.491 94.5499 279.403 96.2079 280.366 98.8649C281.531 102.08 281.502 105.356 280.806 108.532C279.733 113.431 278.259 118.241 275.727 122.65C273.233 126.995 270.164 130.895 266.418 134.19C262.514 137.624 257.904 137.92 253.083 136.519C252.362 136.31 251.682 135.963 250.819 135.612" fill="#000000" fill-rule="evenodd" opacity="1" stroke="none"/>
<path d="M278.388 191.155C279.615 190.94 280.531 190.856 281.401 190.611C283.44 190.036 284.926 188.599 286.395 187.183C288.818 184.846 290.192 182.025 290.057 178.597C290.028 177.855 289.907 177.067 289.613 176.394C288.991 174.97 287.74 174.538 286.464 175.428C285.339 176.214 284.2 177.142 283.442 178.262C280.889 182.036 279.753 186.405 278.388 191.155M336.962 181.395C335.175 182.222 334.035 183.344 333.162 184.638C331.304 187.394 329.493 190.193 327.845 193.078C325.44 197.284 323.13 201.548 320.901 205.85C318.995 209.527 317.274 213.299 315.441 217.013C314.796 218.32 314.108 219.61 313.353 220.855C312.721 221.898 312.058 222.887 311.647 224.073C310.942 226.106 309.762 226.676 307.864 226.188C306.152 225.749 305.153 224.179 305.497 222.259C305.848 220.306 306.317 218.376 306.742 216.438C307.781 211.709 308.92 207 309.827 202.246C310.318 199.68 310.454 197.042 310.659 194.43C310.721 193.64 310.479 192.827 310.379 192.054C308.849 191.384 307.661 192.03 306.784 192.946C304.931 194.876 303.009 196.811 301.552 199.03C299.767 201.75 298.503 204.805 296.88 207.639C294.155 212.4 291.488 217.21 288.127 221.567C286.614 223.529 284.804 225.154 282.239 225.716C278.509 226.532 274.561 224.671 272.821 221.28C271.84 219.368 271.432 217.316 271.137 215.236C270.547 211.072 270.048 206.9 270.135 202.674C270.236 197.799 270.905 193.022 272.433 188.388C273.327 185.676 274.224 182.958 275.308 180.319C276.424 177.603 278.052 175.174 280.098 173.038C281.754 171.311 283.708 170.041 285.991 169.387C288.854 168.568 291.289 169.567 293.316 171.59C295.111 173.382 295.724 175.696 295.79 178.152C296 185.962 290.366 192.396 284.777 194.912C282.449 195.961 280.057 196.1 277.394 195.356C277.16 196.833 276.843 198.183 276.749 199.549C276.362 205.174 276.879 210.743 277.935 216.27C278.022 216.726 278.124 217.191 278.301 217.617C279.158 219.683 280.681 220.035 282.212 218.407C283.284 217.267 284.284 216.014 285.091 214.676C287.865 210.082 290.841 205.604 293.105 200.71C295.182 196.218 297.973 192.218 301.595 188.807C304.042 186.502 306.822 185.152 310.255 185.297C313.494 185.434 315.718 187.22 316.616 190.318C317.469 193.261 317.055 196.205 317.026 199.287C317.35 198.779 317.704 198.288 317.993 197.761C320.384 193.411 322.691 189.012 325.167 184.712C327.041 181.456 329.305 178.477 332.532 176.39C333.168 175.979 333.836 175.615 334.499 175.248C337.649 173.506 340.648 174.929 342.244 177.668C343.575 179.948 344.034 182.446 344.111 185.054C344.3 191.364 343.858 197.647 343.456 203.938C343.242 207.311 343.324 210.702 343.212 214.083C343.089 217.812 342.898 221.539 342.737 225.266C342.678 226.608 342.667 227.954 342.54 229.289C342.47 230.033 342.275 230.783 342.015 231.486C341.554 232.736 340.707 233.44 339.262 233.463C337.663 233.488 336.565 232.84 335.88 231.45C335.735 231.155 335.685 230.771 335.709 230.437C335.962 227.069 336.326 223.707 336.489 220.335C336.682 216.311 336.655 212.277 336.822 208.251C336.997 203.992 337.377 199.741 337.501 195.482C337.615 191.577 337.531 187.666 337.473 183.758C337.463 183.03 337.167 182.305 336.962 181.395" fill="#000000" fill-rule="evenodd" opacity="1" stroke="none"/>
<path d="M337.775 146.08C334.156 146.918 331.06 148.168 328.045 149.686C325.203 151.117 322.925 153.124 321.351 155.879C320.93 156.616 320.63 157.484 320.521 158.324C320.26 160.323 320.881 161.08 322.932 161.318C325.692 161.639 328.092 160.995 329.959 158.722C332.448 155.69 334.578 152.43 336.463 149.004C336.927 148.161 337.258 147.245 337.775 146.08M346.84 121.693C346.49 122.145 346.121 122.585 345.793 123.054C343.225 126.715 340.117 129.88 336.652 132.666C335.363 133.703 333.814 134.635 332.236 135.049C327.58 136.27 323.357 133.131 322.753 128.255C322.339 124.931 322.493 121.614 322.898 118.305C323.538 113.094 324.174 107.88 325.832 102.863C326.124 101.978 326.45 101.096 326.859 100.261C327.337 99.2831 328.583 98.5561 329.399 98.7301C330.443 98.9541 331.061 99.7521 331.156 100.7C331.318 102.311 331.417 103.964 331.234 105.565C330.849 108.921 330.187 112.246 329.786 115.601C329.39 118.897 328.722 122.182 329.009 125.533C329.074 126.286 329.132 127.056 329.342 127.776C329.651 128.838 330.287 129.159 331.162 128.497C332.967 127.131 334.711 125.664 336.349 124.102C339.971 120.651 342.515 116.346 345.416 112.327C347.6 109.3 349.706 106.213 351.797 103.12C352.514 102.059 353.157 100.933 353.703 99.7751C354.273 98.5651 355.151 97.9851 356.447 98.1181C358.155 98.2921 359.268 99.1751 359.547 100.722C359.697 101.55 359.689 102.489 359.457 103.291C357.49 110.064 355.533 116.842 353.409 123.567C352.198 127.401 350.682 131.138 349.304 134.92C349.129 135.4 348.963 135.883 348.718 136.573C349.431 136.522 349.945 136.533 350.44 136.444C357.019 135.26 363.65 134.914 370.321 135.195C373.176 135.315 376.033 135.434 378.888 135.558C380.649 135.635 381.974 137.076 381.992 138.921C382.01 140.904 380.9 142.145 378.934 142.18C377.773 142.201 376.607 142.047 375.446 141.953C366.081 141.193 356.787 141.605 347.566 143.518C346.28 143.785 345.539 144.306 345.078 145.547C342.867 151.503 339.691 156.935 335.729 161.882C334.504 163.413 332.982 164.741 331.449 165.977C330.214 166.974 328.65 167.435 327.061 167.6C324.508 167.864 321.951 168.147 319.464 167.13C315.513 165.513 313.665 162.619 313.862 158.382C313.987 155.716 315.003 153.408 316.519 151.271C318.722 148.168 321.484 145.792 324.905 144.029C329.623 141.598 334.623 140.083 339.717 138.784C340.486 138.588 341.111 138.357 341.424 137.501C343.328 132.304 345.274 127.123 347.206 121.936C347.084 121.855 346.963 121.774 346.84 121.693" fill="#000000" fill-rule="evenodd" opacity="1" stroke="none"/>
<path d="M123.433 235.362C124.999 233.968 126.015 232.419 126.926 230.806C129.749 225.806 131.836 220.491 133.523 215.016C135.24 209.447 136.905 203.862 138.597 198.285C138.698 197.95 138.82 197.62 138.953 197.297C139.75 195.37 140.82 194.779 142.806 195.163C144.261 195.445 145.475 197.018 145.461 198.643C145.44 200.915 145.292 203.192 145.384 205.459C145.598 210.763 145.894 216.065 146.224 221.363C146.294 222.501 146.641 223.622 146.861 224.752L147.249 224.844C148.339 223.005 149.579 221.237 150.494 219.314C154.287 211.342 157.121 203.011 159.662 194.565C162.283 185.853 165.073 177.192 167.785 168.508C168.132 167.394 168.422 166.261 168.8 165.159C169.437 163.298 170.585 162.597 172.387 162.901C173.954 163.166 175.161 164.605 174.989 166.33C174.858 167.65 174.483 168.962 174.087 170.237C171.18 179.6 168.184 188.936 165.327 198.315C162.993 205.971 160.361 213.517 156.981 220.77C155.682 223.557 153.914 226.131 152.293 228.759C151.841 229.493 151.19 230.124 150.556 230.723C147.889 233.241 144.134 232.82 142.084 229.773C140.711 227.731 140.264 225.364 139.882 222.996C139.671 221.688 139.578 220.361 139.389 218.654C139.069 219.303 138.873 219.619 138.752 219.961C137.108 224.584 135.36 229.171 132.894 233.423C131.702 235.481 130.317 237.469 128.751 239.253C127.831 240.301 126.478 241.138 125.156 241.628C122.639 242.559 119.992 241.556 118.326 239.353C116.404 236.812 115.516 233.849 115.035 230.767C114.275 225.903 114.213 221.023 114.64 216.105C115.221 209.403 116.393 202.804 117.616 196.202C118.137 193.395 118.366 190.534 118.827 187.714C119.098 186.051 119.547 184.416 119.954 182.778C120.065 182.332 120.261 181.883 120.515 181.5C120.993 180.781 121.68 180.327 122.578 180.428C123.461 180.527 123.959 181.203 124.039 181.968C124.212 183.64 124.395 185.343 124.266 187.01C123.719 194.102 123.069 201.178 121.971 208.221C120.908 215.03 120.387 221.92 121.329 228.812C121.55 230.418 122.036 231.994 122.483 233.56C122.651 234.147 123.057 234.665 123.433 235.362" fill="#000000" fill-rule="evenodd" opacity="1" stroke="none"/>
<path d="M359.057 218.15C360.715 216.46 361.809 214.393 362.932 212.37C365.935 206.955 368.059 201.152 370.272 195.392C370.434 194.97 370.624 194.48 370.556 194.061C370.132 191.468 369.226 189.118 367.015 187.464C366.032 186.729 365.67 186.627 364.688 187.352C361.786 189.493 359.213 191.91 358.303 195.597C357.704 198.022 357.009 200.43 356.556 202.882C355.728 207.369 356.297 211.807 357.362 216.198C357.579 217.097 358.09 217.748 359.057 218.15M377.386 195.465C376.597 197.319 375.737 199.147 375.033 201.033C373.008 206.452 370.833 211.808 367.889 216.796C366.621 218.943 365.122 220.992 363.484 222.873C361.751 224.861 359.478 225.587 356.511 224.241C353.406 222.831 351.712 220.351 350.956 217.229C349.952 213.079 349.502 208.863 349.863 204.555C350.162 200.974 350.969 197.538 351.969 194.109C353.481 188.93 356.61 185.026 361.046 182.063C362.433 181.136 363.86 180.435 365.557 180.349C367.456 180.253 369.181 180.747 370.573 182.022C371.856 183.195 372.995 184.525 374.283 185.875C374.38 185.75 374.586 185.567 374.69 185.338C376.69 180.925 378.744 176.534 380.649 172.08C382.532 167.681 384.254 163.212 386.066 158.782C387.148 156.135 388.243 153.491 389.377 150.866C390.361 148.59 391.613 148.028 393.627 148.861C395.509 149.64 396.409 151.73 395.476 153.654C392.624 159.543 391.35 165.922 389.626 172.157C388.446 176.429 387.341 180.733 386.455 185.074C385.058 191.922 383.82 198.804 382.614 205.69C381.659 211.141 380.804 216.61 380.001 222.087C379.629 224.626 379.545 227.205 379.224 229.754C378.939 232.02 377.681 233.106 375.81 232.903C374.02 232.71 372.663 231.022 372.822 228.985C373.264 223.276 373.944 217.596 374.975 211.956C375.731 207.822 376.316 203.657 376.983 199.507C377.195 198.19 377.425 196.877 377.648 195.562C377.56 195.529 377.473 195.497 377.386 195.465" fill="#000000" fill-rule="evenodd" opacity="1" stroke="none"/>
<path d="M150.493 141.293C150.713 140.784 150.947 140.28 151.152 139.765C153.638 133.508 156.447 127.416 160.581 122.046C163.703 117.992 167.23 114.348 171.914 112.064C174.036 111.029 176.287 110.463 178.688 110.636C180.399 110.758 181.811 111.468 183.043 112.63C185.92 115.344 187.63 118.79 189.091 122.368C191.94 129.349 193.121 136.711 193.986 144.148C194.268 146.573 194.691 148.986 195.174 151.38C195.579 153.386 195.035 154.565 193.149 155.221C191.557 155.775 189.72 155.015 189.062 153.431C188.73 152.63 188.502 151.762 188.378 150.902C187.988 148.188 187.712 145.458 187.315 142.745C186.315 135.924 185.315 129.091 182.197 122.822C181.395 121.21 180.369 119.705 179.399 118.181C178.845 117.311 178.038 117.042 176.978 117.209C175.115 117.5 173.59 118.451 172.117 119.505C169.083 121.674 166.781 124.539 164.655 127.554C161.914 131.442 159.846 135.691 158.075 140.088C155.959 145.343 153.945 150.633 153.085 156.277C152.919 157.372 152.788 158.476 152.537 159.552C152.22 160.912 151.729 162.232 151.439 163.597C151.126 165.072 150.111 165.59 148.809 165.72C147.552 165.845 146.489 165.342 145.824 164.269C145.467 163.694 145.218 162.994 145.132 162.323C144.947 160.878 144.892 159.417 144.796 157.961C144.493 153.362 144.19 148.762 143.896 144.162C143.591 139.384 143.245 134.609 143.011 129.828C142.59 121.259 142.233 112.687 141.862 104.116C141.675 99.801 141.463 95.486 141.369 91.168C141.331 89.424 141.567 87.672 141.709 85.927C141.742 85.528 141.84 85.107 142.019 84.753C142.41 83.983 143.047 83.42 143.931 83.413C144.812 83.405 145.524 83.871 145.821 84.73C146.122 85.605 146.447 86.506 146.531 87.417C146.805 90.376 146.95 93.348 147.187 96.311C147.415 99.158 147.596 102.015 147.979 104.843C148.679 110.001 148.716 115.191 148.98 120.372C149.332 127.307 149.744 134.238 150.131 141.17C150.251 141.211 150.372 141.252 150.493 141.293" fill="#000000" fill-rule="evenodd" opacity="1" stroke="none"/>
<path d="M311.562 104.68C310.541 104.375 309.658 104.644 308.904 105.243C307.537 106.331 306.208 107.468 304.881 108.605C302.122 110.973 299.644 113.594 297.736 116.716C295.696 120.051 293.642 123.376 291.614 126.717C290.924 127.851 290.292 129.019 289.676 130.098C291.091 132.757 294.392 134.464 296.724 133.639C299.283 132.735 301.578 131.34 303.271 129.138C307.427 123.735 310.204 117.682 311.703 111.044C312.18 108.925 312.362 106.789 311.562 104.68M294.237 111.083C297.064 107.254 300.597 104.121 304.166 101.038C306.589 98.9427 309.444 97.8767 312.717 98.2137C315.332 98.4827 317.01 99.9267 317.774 102.39C318.654 105.223 318.785 108.134 318.26 111.043C316.751 119.422 313.206 126.887 308.026 133.608C306.977 134.967 305.715 136.078 304.245 136.946C302.839 137.774 301.45 138.648 299.981 139.35C296.755 140.893 293.517 140.484 290.32 139.185C289.632 138.906 288.969 138.563 288.094 138.157C287.753 139.762 287.423 141.219 287.138 142.685C285.926 148.921 284.709 155.156 283.539 161.4C283.288 162.738 282.746 163.679 281.31 163.937C279.586 164.248 278.382 163.793 277.496 162.471C277.007 161.743 276.923 160.979 277.092 160.132C278.995 150.638 280.833 141.131 282.795 131.65C283.883 126.397 285.201 121.193 286.361 115.955C287.382 111.345 288.302 106.712 289.322 102.102C289.649 100.624 290.126 99.1777 290.59 97.7337C290.749 97.2447 290.996 96.7417 291.333 96.3627C292.566 94.9797 294.433 95.2217 295.201 96.8917C295.479 97.4997 295.639 98.2587 295.568 98.9167C295.251 101.812 294.844 104.698 294.444 107.584C294.285 108.724 294.058 109.856 293.862 110.992C293.987 111.022 294.112 111.053 294.237 111.083" fill="#000000" fill-rule="evenodd" opacity="1" stroke="none"/>
</g>
</g>
</g>
</g>
</svg>
